<svg t="1737959056235" class="icon" viewBox="0 0 1050 1024" version="1.1" xmlns="http://www.w3.org/2000/svg" p-id="22473" width="200" height="200"><path d="M408.273428 583.78679a409.955968 409.955968 0 0 0-86.618772-43.902665C-14.734684 415.295481 0.097298 4.152955 0.097298 0h59.327926C59.425224 17.798378 46.966359 377.325608 341.826151 484.115875A474.623407 474.623407 0 0 1 440.903787 533.951333zM662.790229 1024h-59.327925a634.215527 634.215527 0 0 0-65.260719-288.926999l52.801854-27.290846a692.950174 692.950174 0 0 1 71.78679 316.217845z" fill="#2c2c2c" p-id="22474"></path><path d="M0.097298 1024c0-4.152955-14.831981-415.295481 321.557358-539.884125 296.639629-106.790267 282.994206-466.317497 282.400927-481.742758h59.327926c0 4.152955 14.238702 415.295481-321.557358 539.884125C46.966359 647.267671 59.425224 1008.574739 59.425224 1021.626883z" fill="#2c2c2c" p-id="22475"></path><path d="M52.899152 110.943221h487.67555v59.327926H52.899152zM100.361492 278.841251h393.344149v59.327926H100.361492zM122.906104 853.728853h487.675551v59.327926H122.906104zM169.181886 685.830823h417.668598v59.327926H169.181886zM747.629163 579.633835l-42.122827-42.122827 84.245655-84.245655V372.579374h59.327926v93.144844a30.257242 30.257242 0 0 1-8.899189 20.764774z" fill="#2c2c2c" p-id="22476"></path><path d="M812.296603 494.55759l14.357358-57.548088 92.67022 23.137891-14.357358 57.548088zM819.415954 421.228273a94.924681 94.924681 0 1 1 94.924681-94.924681 94.924681 94.924681 0 0 1-94.924681 94.924681z m0-130.521436a35.596756 35.596756 0 1 0 35.596755 35.596755 35.596756 35.596756 0 0 0-35.596755-35.596755zM703.133219 672.1854a90.771727 90.771727 0 1 1 90.178447-90.178448 90.771727 90.771727 0 0 1-90.178447 90.178448z m0-121.622248a31.443801 31.443801 0 1 0 30.850521 31.4438 30.850521 30.850521 0 0 0-30.850521-31.4438z" fill="#2c2c2c" p-id="22477"></path><path d="M958.836579 604.551564a92.551564 92.551564 0 1 1 91.958285-92.551564 92.551564 92.551564 0 0 1-91.958285 92.551564z m0-125.775202a33.223638 33.223638 0 1 0 32.63036 33.223638 33.223638 33.223638 0 0 0-32.63036-33.223638z" fill="#2c2c2c" p-id="22478"></path></svg>