<svg t="1737958653964" class="icon" viewBox="0 0 1024 1024" version="1.1" xmlns="http://www.w3.org/2000/svg" p-id="17091" width="200" height="200"><path d="M903.630507 286.17728l-56.784214-63.097173-170.298026 11.904 19.288746-94.04928 265.70752 4.770133 1.13152-113.099093-551.83872-8.333654-1.13152 111.90272 176.006827 3.572054-21.577387 103.569066-123.774293 8.343894 6.81472 111.901013 94.230187-5.946027-21.577387 102.382934-137.383253 5.95968 4.55168 111.899306 610.885973-28.57984-3.418453-111.899306-110.14656 5.957973 19.31264-157.1584z m-43.153067 715.501227l49.967787-44.0576 49.96608-258.341547-49.96608-66.65728-449.652054-19.037867-54.49728 70.217387 69.256534 294.068907 54.50752 42.871466 330.417493-19.063466z m-475.757227-52.391254l-31.786666-107.129173-115.817814 39.289173 76.071254-498.834773-60.177067-64.283307L25.914027 346.897067l14.76096 111.914666 155.562666-19.05152-78.34624 513.114454 68.125014 61.90592 198.703786-65.493334z m457.598294-208.325973l-28.3904 151.190187-245.266774 14.28992-41.997653-177.396054 315.654827 11.915947zM333.620907 211.176107L189.422933 2.838187 103.130453 68.319573l144.196267 208.33792 86.294187-65.481386z m456.465066 128.576853l-14.76096 108.340907-144.196266 5.946026 21.5552-104.756906 137.402026-9.530027z" fill="#2c2c2c" p-id="17092"></path></svg>