<svg t="1737957870708" class="icon" viewBox="0 0 1024 1024" version="1.1" xmlns="http://www.w3.org/2000/svg" p-id="10363" width="200" height="200"><path d="M18.285714 512a493.714286 493.714286 0 1 1 987.428572 0A493.714286 493.714286 0 0 1 18.285714 512z" fill="#000000" p-id="10364"></path><path d="M360.374857 302.665143c30.134857-6.217143 122.294857-20.187429 204.8-32.329143 52.150857-7.606857 104.228571-15.140571 156.379429-22.528 25.6-3.657143 51.273143 11.264 55.149714 38.326857 3.803429 26.770286-16.896 48.566857-42.276571 52.150857l-66.998858 9.581715v337.773714a28.818286 28.818286 0 0 0 14.848-5.778286 42.130286 42.130286 0 0 0 9.435429-9.508571 45.714286 45.714286 0 1 1 79.433143 45.202285c-11.776 20.699429-47.762286 61.586286-105.545143 61.586286-30.061714 0-54.491429-11.702857-70.436571-31.158857a85.065143 85.065143 0 0 1-19.163429-53.028571V361.179429c-31.085714 4.608-62.756571 9.289143-91.574857 13.677714a1514.569143 1514.569143 0 0 1-9.874286 164.059428c-9.362286 76.580571-28.525714 163.693714-72.704 220.525715a45.714286 45.714286 0 0 1-72.192-56.027429c27.574857-35.547429 44.909714-100.425143 54.125714-175.616 5.997714-48.64 8.192-97.499429 8.923429-138.24a546.596571 546.596571 0 0 0-13.897143 2.633143 52.516571 52.516571 0 0 0-28.525714 16.822857 61.293714 61.293714 0 0 0-13.531429 23.186286 45.714286 45.714286 0 1 1-88.356571-23.259429c9.362286-35.620571 44.397714-92.379429 111.908571-106.276571z" fill="#FFFFFF" p-id="10365"></path></svg>