<svg t="1737958853407" class="icon" viewBox="0 0 1055 1024" version="1.1" xmlns="http://www.w3.org/2000/svg" p-id="18430" width="200" height="200"><path d="M395.311033 479.025462h264.307539c60.964553 0 115.027459-41.921118 115.027459-103.01348V110.809785a115.027459 115.027459 0 0 0-115.027459-110.809785H395.311033a115.027459 115.027459 0 0 0-115.027458 110.809785v265.202197c0 61.092361 54.062906 103.01348 115.027458 103.01348z m4.473291-135.86021L498.452322 119.117324a31.440839 31.440839 0 0 1 57.258112 0l99.051423 224.047928a29.012481 29.012481 0 0 1-16.103844 38.342486 32.07988 32.07988 0 0 1-41.154269-17.381927l-21.088367-51.123315h-98.284573l-21.088368 51.123315a34.508238 34.508238 0 0 1-28.629056 21.471793 29.907139 29.907139 0 0 1-12.780829-2.556166 30.546181 30.546181 0 0 1-15.848227-39.876186zM268.397404 718.538193c0-11.886171-16.231653-24.794808-38.342486-24.794808h-48.56715v49.461807H230.054918c21.599601 0 38.342486-12.780829 38.342486-24.666999z m259.067399-521.202197l-25.561658 50.356465h50.228657z m416.910634 347.76635H680.067898a98.028957 98.028957 0 0 0-103.141288 102.885672v265.330005c0 61.092361 42.048927 110.681977 103.141288 110.681977h264.307539a110.809785 110.809785 0 0 0 110.681977-110.681977V647.988018c0-61.092361-49.717424-102.885671-110.681977-102.885672zM821.807289 874.975537a66.971543 66.971543 0 0 0 54.829755-33.61358 31.440839 31.440839 0 0 1 43.582626-9.457813 30.673989 30.673989 0 0 1 9.457814 42.56016 127.808288 127.808288 0 0 1-107.358962 62.114827c-74.000999 0-134.198702-69.911133-134.198702-155.926111s60.197703-156.053919 134.198702-156.053919A129.981028 129.981028 0 0 1 933.000499 692.081877a30.546181 30.546181 0 0 1-11.247129 42.176735 31.440839 31.440839 0 0 1-42.687968-11.119321 67.610584 67.610584 0 0 0-56.74688-36.936595c-39.492761 0-71.828258 42.432351-71.828257 94.450324s31.824264 94.322516 71.317024 94.322517z m-447.329006-329.873191H110.681977C49.717424 545.102346 0 586.895657 0 647.988018v265.330005a110.809785 110.809785 0 0 0 110.681977 110.681977h264.307539c60.964553 0 103.01348-49.589616 103.01348-110.681977V647.988018a98.028957 98.028957 0 0 0-103.01348-102.885672z m-127.808288 379.846231h-90.616076c-17.254119 0-24.155766-6.390414-24.155766-23.388916V659.74638c0-16.998502 6.901648-32.07988 24.155766-32.07988h79.368947c56.619071 0 102.24663 38.342486 102.24663 86.781828a76.684973 76.684973 0 0 1-17.254119 47.800299 87.037444 87.037444 0 0 1 40.003994 70.9336c0.383425 52.657014-50.484274 91.76635-112.982526 91.76635z m0-115.6665h-65.310035v66.076885h66.332501c28.629056 0 53.679481-15.081378 53.679481-32.974539s-25.050424-33.102346-53.679481-33.102346z" fill="#2c2c2c" p-id="18431"></path></svg>